<svg width="74" height="74" viewBox="0 0 74 74" fill="none" xmlns="http://www.w3.org/2000/svg">
<circle cx="37.291" cy="36.9999" r="36.5" fill="#39348B"/>
<path d="M41.541 51.7499V43.1999C41.541 42.3131 41.541 41.8698 41.3684 41.5311C41.2166 41.2331 40.9744 40.9909 40.6765 40.8391C40.3378 40.6665 39.8944 40.6665 39.0077 40.6665H34.5743C33.6876 40.6665 33.2442 40.6665 32.9055 40.8391C32.6076 40.9909 32.3654 41.2331 32.2136 41.5311C32.041 41.8698 32.041 42.3131 32.041 43.1999V51.7499M22.541 29.5832C22.541 32.2066 24.6677 34.3332 27.291 34.3332C29.9144 34.3332 32.041 32.2066 32.041 29.5832C32.041 32.2066 34.1677 34.3332 36.791 34.3332C39.4144 34.3332 41.541 32.2066 41.541 29.5832C41.541 32.2066 43.6677 34.3332 46.291 34.3332C48.9144 34.3332 51.041 32.2066 51.041 29.5832M27.6077 51.7499H45.9743C47.7478 51.7499 48.6346 51.7499 49.312 51.4047C49.9078 51.1011 50.3923 50.6167 50.6959 50.0208C51.041 49.3435 51.041 48.4567 51.041 46.6832V28.3165C51.041 26.543 51.041 25.6563 50.6959 24.9789C50.3923 24.3831 49.9078 23.8986 49.312 23.595C48.6346 23.2499 47.7478 23.2499 45.9743 23.2499H27.6077C25.8342 23.2499 24.9474 23.2499 24.27 23.595C23.6742 23.8986 23.1898 24.3831 22.8862 24.9789C22.541 25.6563 22.541 26.543 22.541 28.3165V46.6832C22.541 48.4567 22.541 49.3435 22.8862 50.0208C23.1898 50.6167 23.6742 51.1011 24.27 51.4047C24.9474 51.7499 25.8342 51.7499 27.6077 51.7499Z" stroke="#F9F9F9" stroke-width="3" stroke-linecap="round" stroke-linejoin="round"/>
</svg>
