<svg width="13" height="12" viewBox="0 0 13 12" fill="none" xmlns="http://www.w3.org/2000/svg">
<path d="M11.0002 2.49995H2.0002C1.90908 2.50023 1.81976 2.52536 1.74186 2.57264C1.66396 2.61991 1.60043 2.68753 1.5581 2.76822C1.51578 2.84892 1.49626 2.93963 1.50165 3.03059C1.50704 3.12155 1.53714 3.20932 1.5887 3.28445L6.0887 9.78445C6.2752 10.0539 6.7242 10.0539 6.9112 9.78445L11.4112 3.28445C11.4633 3.20948 11.4938 3.12166 11.4995 3.03055C11.5052 2.93944 11.4858 2.84851 11.4434 2.76764C11.4011 2.68678 11.3374 2.61907 11.2592 2.57188C11.1811 2.52468 11.0915 2.4998 11.0002 2.49995Z" fill="#212636"/>
</svg>
