<svg width="74" height="74" viewBox="0 0 74 74" fill="none" xmlns="http://www.w3.org/2000/svg">
<circle cx="37.0996" cy="36.6655" r="36.5" fill="#39348B"/>
<path d="M23.9328 43.8824C22.0233 42.6042 20.7661 40.4275 20.7661 37.9572C20.7661 34.2465 23.6027 31.1984 27.2257 30.8629C27.9668 26.3547 31.8815 22.9155 36.5994 22.9155C41.3174 22.9155 45.2321 26.3547 45.9732 30.8629C49.5962 31.1984 52.4328 34.2465 52.4328 37.9572C52.4328 40.4275 51.1756 42.6042 49.2661 43.8824M30.2661 45.0822L36.5994 51.4155M36.5994 51.4155L42.9328 45.0822M36.5994 51.4155V37.1655" stroke="#F9F9F9" stroke-width="3" stroke-linecap="round" stroke-linejoin="round"/>
<circle cx="37.0996" cy="36.6655" r="36.5" fill="#39348B"/>
<path d="M26.3081 26.0655C26.3081 24.5278 26.3081 23.759 26.6203 23.3352C26.8922 22.966 27.3079 22.7375 27.7579 22.7099C28.2744 22.6782 28.8973 23.1047 30.143 23.9576L46.3545 35.0574C47.3839 35.7622 47.8985 36.1146 48.0779 36.5587C48.2347 36.9471 48.2347 37.3835 48.0779 37.7718C47.8985 38.216 47.3839 38.5683 46.3545 39.2731L30.143 50.3729C28.8973 51.2258 28.2744 51.6523 27.7579 51.6206C27.3079 51.593 26.8922 51.3646 26.6203 50.9953C26.3081 50.5715 26.3081 49.8027 26.3081 48.265V26.0655Z" stroke="#F9F9F9" stroke-width="3" stroke-linecap="round" stroke-linejoin="round"/>
</svg>
