<svg width="74" height="74" viewBox="0 0 74 74" fill="none" xmlns="http://www.w3.org/2000/svg">
<circle cx="36.5371" cy="37.1465" r="36.5" fill="#39348B"/>
<path d="M40.7871 51.8965V43.3465C40.7871 42.4597 40.7871 42.0164 40.6145 41.6777C40.4627 41.3797 40.2205 41.1375 39.9226 40.9857C39.5839 40.8132 39.1405 40.8132 38.2538 40.8132H33.8204C32.9337 40.8132 32.4903 40.8132 32.1516 40.9857C31.8537 41.1375 31.6115 41.3797 31.4597 41.6777C31.2871 42.0164 31.2871 42.4597 31.2871 43.3465V51.8965M21.7871 29.7298C21.7871 32.3532 23.9138 34.4798 26.5371 34.4798C29.1605 34.4798 31.2871 32.3532 31.2871 29.7298C31.2871 32.3532 33.4138 34.4798 36.0371 34.4798C38.6605 34.4798 40.7871 32.3532 40.7871 29.7298C40.7871 32.3532 42.9138 34.4798 45.5371 34.4798C48.1605 34.4798 50.2871 32.3532 50.2871 29.7298M26.8538 51.8965H45.2204C46.9939 51.8965 47.8807 51.8965 48.5581 51.5513C49.1539 51.2477 49.6384 50.7633 49.942 50.1675C50.2871 49.4901 50.2871 48.6033 50.2871 46.8298V28.4632C50.2871 26.6897 50.2871 25.8029 49.942 25.1255C49.6384 24.5297 49.1539 24.0452 48.5581 23.7416C47.8807 23.3965 46.9939 23.3965 45.2204 23.3965H26.8538C25.0803 23.3965 24.1935 23.3965 23.5161 23.7416C22.9203 24.0452 22.4359 24.5297 22.1323 25.1255C21.7871 25.8029 21.7871 26.6897 21.7871 28.4632V46.8298C21.7871 48.6033 21.7871 49.4901 22.1323 50.1675C22.4359 50.7633 22.9203 51.2477 23.5161 51.5513C24.1935 51.8965 25.0803 51.8965 26.8538 51.8965Z" stroke="#F9F9F9" stroke-width="3" stroke-linecap="round" stroke-linejoin="round"/>
<circle cx="36.5371" cy="37.1465" r="36.5" fill="#39348B"/>
<path d="M22.7036 30.9797L33.5902 38.6003C34.4717 39.2174 34.9125 39.526 35.392 39.6455C35.8155 39.751 36.2584 39.751 36.6819 39.6455C37.1614 39.526 37.6022 39.2174 38.4837 38.6003L49.3703 30.9797M29.1036 48.3131H42.9703C45.2105 48.3131 46.3306 48.3131 47.1862 47.8771C47.9389 47.4936 48.5508 46.8817 48.9343 46.129C49.3703 45.2734 49.3703 44.1533 49.3703 41.9131V33.3797C49.3703 31.1395 49.3703 30.0194 48.9343 29.1638C48.5508 28.4111 47.9389 27.7992 47.1862 27.4157C46.3306 26.9797 45.2105 26.9797 42.9703 26.9797H29.1036C26.8634 26.9797 25.7433 26.9797 24.8877 27.4157C24.135 27.7992 23.5231 28.4111 23.1396 29.1638C22.7036 30.0194 22.7036 31.1395 22.7036 33.3797V41.9131C22.7036 44.1533 22.7036 45.2734 23.1396 46.129C23.5231 46.8817 24.135 47.4936 24.8877 47.8771C25.7433 48.3131 26.8634 48.3131 29.1036 48.3131Z" stroke="#F9F9F9" stroke-width="3" stroke-linecap="round" stroke-linejoin="round"/>
<circle cx="36.5371" cy="37.1465" r="36.5" fill="#39348B"/>
<path d="M23.3703 44.3633C21.4608 43.0852 20.2036 40.9085 20.2036 38.4382C20.2036 34.7275 23.0402 31.6794 26.6632 31.3438C27.4043 26.8357 31.319 23.3965 36.0369 23.3965C40.7549 23.3965 44.6696 26.8357 45.4107 31.3438C49.0337 31.6794 51.8703 34.7275 51.8703 38.4382C51.8703 40.9085 50.6131 43.0852 48.7036 44.3633M29.7036 45.5632L36.0369 51.8965M36.0369 51.8965L42.3703 45.5632M36.0369 51.8965V37.6465" stroke="#F9F9F9" stroke-width="3" stroke-linecap="round" stroke-linejoin="round"/>
</svg>
