<svg width="74" height="74" viewBox="0 0 74 74" fill="none" xmlns="http://www.w3.org/2000/svg">
<circle cx="37.0996" cy="36.6271" r="36.5" fill="#39348B"/>
<path d="M41.3496 51.3771V42.8271C41.3496 41.9403 41.3496 41.497 41.177 41.1583C41.0252 40.8603 40.783 40.6181 40.4851 40.4663C40.1464 40.2937 39.703 40.2937 38.8163 40.2937H34.3829C33.4962 40.2937 33.0528 40.2937 32.7141 40.4663C32.4162 40.6181 32.174 40.8603 32.0222 41.1583C31.8496 41.497 31.8496 41.9403 31.8496 42.8271V51.3771M22.3496 29.2104C22.3496 31.8338 24.4763 33.9604 27.0996 33.9604C29.723 33.9604 31.8496 31.8338 31.8496 29.2104C31.8496 31.8338 33.9763 33.9604 36.5996 33.9604C39.223 33.9604 41.3496 31.8338 41.3496 29.2104C41.3496 31.8338 43.4763 33.9604 46.0996 33.9604C48.723 33.9604 50.8496 31.8338 50.8496 29.2104M27.4163 51.3771H45.7829C47.5564 51.3771 48.4432 51.3771 49.1206 51.0319C49.7164 50.7283 50.2009 50.2439 50.5045 49.648C50.8496 48.9707 50.8496 48.0839 50.8496 46.3104V27.9437C50.8496 26.1702 50.8496 25.2835 50.5045 24.6061C50.2009 24.0103 49.7164 23.5258 49.1206 23.2222C48.4432 22.8771 47.5564 22.8771 45.7829 22.8771H27.4163C25.6428 22.8771 24.756 22.8771 24.0786 23.2222C23.4828 23.5258 22.9984 24.0103 22.6948 24.6061C22.3496 25.2835 22.3496 26.1702 22.3496 27.9437V46.3104C22.3496 48.0839 22.3496 48.9707 22.6948 49.648C22.9984 50.2439 23.4828 50.7283 24.0786 51.0319C24.756 51.3771 25.6428 51.3771 27.4163 51.3771Z" stroke="#F9F9F9" stroke-width="3" stroke-linecap="round" stroke-linejoin="round"/>
<circle cx="37.0996" cy="36.6271" r="36.5" fill="#39348B"/>
<path d="M23.2661 30.4604L34.1527 38.081C35.0342 38.6981 35.475 39.0067 35.9545 39.1262C36.378 39.2318 36.8209 39.2318 37.2444 39.1262C37.7239 39.0067 38.1647 38.6981 39.0462 38.081L49.9328 30.4604M29.6661 47.7938H43.5328C45.773 47.7938 46.8931 47.7938 47.7487 47.3578C48.5014 46.9743 49.1133 46.3624 49.4968 45.6097C49.9328 44.7541 49.9328 43.634 49.9328 41.3938V32.8605C49.9328 30.6202 49.9328 29.5001 49.4968 28.6445C49.1133 27.8918 48.5014 27.2799 47.7487 26.8964C46.8931 26.4604 45.773 26.4604 43.5328 26.4604H29.6661C27.4259 26.4604 26.3058 26.4604 25.4502 26.8964C24.6975 27.2799 24.0856 27.8918 23.7021 28.6445C23.2661 29.5001 23.2661 30.6202 23.2661 32.8605V41.3938C23.2661 43.634 23.2661 44.7541 23.7021 45.6097C24.0856 46.3624 24.6975 46.9743 25.4502 47.3578C26.3058 47.7938 27.4259 47.7938 29.6661 47.7938Z" stroke="#F9F9F9" stroke-width="3" stroke-linecap="round" stroke-linejoin="round"/>
</svg>
