<svg width="10" height="8" viewBox="0 0 10 8" fill="none" xmlns="http://www.w3.org/2000/svg">
<path d="M9.49971 0.499703H0.499713C0.408592 0.499989 0.319275 0.525121 0.241375 0.572392C0.163475 0.619664 0.0999422 0.687286 0.0576153 0.76798C0.0152884 0.848673 -0.00422955 0.939384 0.00116158 1.03034C0.0065527 1.12131 0.0366497 1.20907 0.088213 1.2842L4.58821 7.7842C4.77471 8.0537 5.22371 8.0537 5.41071 7.7842L9.91071 1.2842C9.9628 1.20923 9.99335 1.12142 9.99903 1.03031C10.0047 0.939193 9.98532 0.848264 9.94296 0.7674C9.90059 0.686535 9.83688 0.618826 9.75873 0.571631C9.68059 0.524436 9.591 0.499559 9.49971 0.499703Z" fill="#212636"/>
</svg>
